<svg xmlns="http://www.w3.org/2000/svg" viewBox="0 0 900 1400" fill="none">
<defs>
<linearGradient id="bg" x1="0" y1="0" x2="900" y2="1400" gradientUnits="userSpaceOnUse"><stop stop-color="#071018"/><stop offset="0.6" stop-color="#09121C"/><stop offset="1" stop-color="#05080D"/></linearGradient>
<radialGradient id="g" cx="0" cy="0" r="1" gradientUnits="userSpaceOnUse" gradientTransform="translate(655 285) rotate(90) scale(400 280)"><stop stop-color="#F0D59D" stop-opacity="0.64"/><stop offset="0.4" stop-color="#D39A4D" stop-opacity="0.25"/><stop offset="1" stop-color="#D39A4D" stop-opacity="0"/></radialGradient>
<linearGradient id="glass" x1="0" y1="0" x2="1" y2="1"><stop stop-color="#EECF90" stop-opacity="0.16"/><stop offset="1" stop-color="#EECF90" stop-opacity="0.03"/></linearGradient>
</defs>
<rect width="900" height="1400" fill="url(#bg)"/><rect width="900" height="1400" fill="url(#g)"/>
<rect x="510" y="98" width="14" height="1160" rx="7" fill="#7A5228"/><rect x="533" y="98" width="5" height="1160" rx="2.5" fill="#F0CF8D" fill-opacity="0.5"/>
<rect x="712" y="98" width="14" height="1160" rx="7" fill="#7A5228"/><rect x="735" y="98" width="5" height="1160" rx="2.5" fill="#F0CF8D" fill-opacity="0.5"/>
<rect x="523" y="112" width="200" height="1110" rx="28" fill="url(#glass)" stroke="#D7A85B" stroke-opacity="0.22"/>
<ellipse cx="382" cy="1200" rx="182" ry="44" fill="#020407" fill-opacity="0.78"/>
<circle cx="394" cy="780" r="88" fill="#1A2230"/><path d="M278 1170c10-101 68-174 140-189 55-11 107 6 147 43 35 32 57 78 65 146H278Z" fill="#111A26"/>
<circle cx="602" cy="910" r="74" fill="#1E2836"/><path d="M506 1176c12-84 64-147 129-165 65-18 138 9 185 74 21 29 35 58 42 91H506Z" fill="#111923"/>
<path d="M465 1168c16-70 54-120 106-145 51-24 106-24 165-1-26-44-76-72-132-72-88 0-162 65-191 162l52 56Z" fill="#151F2C" fill-opacity="0.68"/>
</svg>