<svg xmlns="http://www.w3.org/2000/svg" viewBox="0 0 1600 1000" fill="none">
<defs>
<linearGradient id="bg" x1="0" y1="0" x2="1600" y2="1000" gradientUnits="userSpaceOnUse">
<stop stop-color="#071018"/><stop offset="0.55" stop-color="#09111A"/><stop offset="1" stop-color="#05080D"/>
</linearGradient>
<radialGradient id="g" cx="0" cy="0" r="1" gradientUnits="userSpaceOnUse" gradientTransform="translate(1190 270) rotate(90) scale(420 330)">
<stop stop-color="#F0D59D" stop-opacity="0.66"/><stop offset="0.4" stop-color="#D39A4D" stop-opacity="0.28"/><stop offset="1" stop-color="#D39A4D" stop-opacity="0"/>
</radialGradient>
<linearGradient id="glass" x1="0" y1="0" x2="1" y2="1"><stop stop-color="#EECF90" stop-opacity="0.16"/><stop offset="1" stop-color="#EECF90" stop-opacity="0.03"/></linearGradient>
</defs>
<rect width="1600" height="1000" fill="url(#bg)"/>
<rect width="1600" height="1000" fill="url(#g)"/>
<g opacity="0.9">
<rect x="1000" y="88" width="15" height="820" rx="7.5" fill="#7A5228"/>
<rect x="1025" y="88" width="5" height="820" rx="2.5" fill="#F0CF8D" fill-opacity="0.5"/>
<rect x="1275" y="88" width="15" height="820" rx="7.5" fill="#7A5228"/>
<rect x="1300" y="88" width="5" height="820" rx="2.5" fill="#F0CF8D" fill-opacity="0.5"/>
<rect x="1014" y="102" width="272" height="748" rx="28" fill="url(#glass)" stroke="#D7A85B" stroke-opacity="0.22"/>
</g>
<g>
<ellipse cx="810" cy="854" rx="250" ry="44" fill="#020407" fill-opacity="0.76"/>
<circle cx="806" cy="454" r="86" fill="#1A2230"/>
<path d="M706 798c0-92 44-167 100-167s100 75 100 167H706Z" fill="#111A26"/>
<path d="M683 813c16-95 76-169 154-183 42-7 83-1 124 22 56 31 96 87 114 161H683Z" fill="#101822"/>
<circle cx="1115" cy="566" r="74" fill="#1E2836"/>
<path d="M1020 824c12-86 65-152 134-171 67-18 145 11 194 80 20 29 34 58 42 91H1020Z" fill="#111923"/>
<path d="M961 818c18-74 60-126 114-151 53-24 113-23 176 3-28-49-83-81-146-81-95 0-175 73-200 181l56 48Z" fill="#151F2C" fill-opacity="0.68"/>
</g>
<g opacity="0.18">
<circle cx="1330" cy="230" r="2.2" fill="#F1D293"/><circle cx="1252" cy="174" r="1.7" fill="#F1D293"/><circle cx="1380" cy="320" r="1.6" fill="#F1D293"/>
<circle cx="1088" cy="344" r="1.8" fill="#F1D293"/><circle cx="1346" cy="538" r="1.7" fill="#F1D293"/>
</g>
</svg>